# xmcd
#
# Track frame offsets: 
#        150
#        8242
#        24034
#        51812
#        95077
#        109404
#        116609
#        132894
#        162426
#        191654
#        212738
#        223160
#        228133
#        234320
#        242322
#        269212
#        286613
#
# Disc length: 3972 seconds
#
# Revision: 0
# Processed by: cddbd v1.5.2PL0 Copyright (c) Steve Scherf et al.
# Submitted via: ExactAudioCopy v1.0b6
#
DISCID=eb0f8211
DTITLE=Xiayin Wang - SCRIABIN: Poèmes, Waltzes and Dances (2009)
DYEAR=2009
DGENRE=Classical Piano
TTITLE0=Scriabin: Valse In D Flat
TTITLE1=Scriabin: Valse In F Minor, Op. 1
TTITLE2=Scriabin: Polonaise In B Flat Minor, Op. 21
TTITLE3=Scriabin: Fantasie In B Minor, Op. 28
TTITLE4=Scriabin: 2 Poèmes, Op. 32 - #1 In F Sharp
TTITLE5=Scriabin: 2 Poèmes, Op. 32 - #2 In D
TTITLE6=Scriabin: Poème Tragique, Op. 34
TTITLE7=Scriabin: Poème Satanique, Op. 36
TTITLE8=Scriabin: Valse In A Flat, Op. 38
TTITLE9=Scriabin: Poème In D Flat, Op. 41
TTITLE10=Scriabin: 3 Pieces, Op. 52 - #1. Poème
TTITLE11=Scriabin: 3 Pieces, Op. 52 - #2. Enigme
TTITLE12=Scriabin: 3 Pieces, Op. 52 - #3. Poème Languide
TTITLE13=Scriabin: Feuillet D'Album, Op. 58
TTITLE14=Scriabin: Vers La Flamme, Op. 72
TTITLE15=Scriabin: 2 Dances, Op. 73 - 1. Guirlandes
TTITLE16=Scriabin: 2 Dances, Op. 73 - 2. Flammes Sombres
EXTD=
EXTT0=
EXTT1=
EXTT2=
EXTT3=
EXTT4=
EXTT5=
EXTT6=
EXTT7=
EXTT8=
EXTT9=
EXTT10=
EXTT11=
EXTT12=
EXTT13=
EXTT14=
EXTT15=
EXTT16=
PLAYORDER=
